<svg width="358" height="278" viewBox="0 0 358 278" fill="none" xmlns="http://www.w3.org/2000/svg">
<g clip-path="url(#clip0_105_2439)">
<path opacity="0.1" d="M351.076 73.9672C347.532 65.7527 342.742 58.132 336.876 51.3727L139.862 49.4344L302.071 26.6833C291.592 22.516 280.436 20.3057 269.158 20.1621C253.641 7.77649 234.535 0.723706 214.681 0.0528403C194.828 -0.618025 175.288 5.12887 158.968 16.4387C145.926 9.74337 131.468 6.26398 116.803 6.29151C73.0287 6.29151 36.551 36.566 28.3689 76.7163L351.076 73.9672Z" fill="#1E1E1E"/>
<path opacity="0.1" d="M358.003 107.638C358.013 96.7506 355.928 85.9627 351.863 75.8602L10.4122 111.65C6.89118 118.01 4.1978 124.792 2.39744 131.833L108.134 147.576L-0.0174561 159.059C3.23725 204.509 42.2554 240.4 89.919 240.4C113.911 240.4 135.715 231.304 151.866 216.473C168.074 231.586 190.083 240.877 214.333 240.877C250.316 240.877 281.372 220.419 295.833 190.837C324.85 181.644 347.389 158.551 355.104 129.665L221.403 108.939H358.003C357.997 108.505 358.003 108.073 358.003 107.638Z" fill="#1E1E1E"/>
<path d="M99.8992 278C143.586 278 179.002 272.203 179.002 265.052C179.002 257.9 143.586 252.103 99.8992 252.103C56.212 252.103 20.7966 257.9 20.7966 265.052C20.7966 272.203 56.212 278 99.8992 278Z" fill="#1E1E1E"/>
<path d="M181.709 181.64C178.151 182.531 174.499 180.798 174.499 180.798C174.499 180.798 171.384 177.196 168.757 176.709C166.129 176.222 165.112 180.485 163.551 181.581C162.47 182.35 154.679 181.8 149.96 181.389L149.148 181.316C149.068 181.257 148.988 181.195 148.901 181.139C148.901 181.139 144.371 179.747 143.426 178.515C142.482 177.283 136.171 175.004 134.213 175.136C132.255 175.268 126.466 175.582 126.466 175.582C126.466 175.582 124.198 173.003 123.173 173.271C122.149 173.539 118.588 173.25 118.588 173.25C118.588 173.25 117.608 170.738 116.629 167.136C116.173 165.455 114.653 164.276 113.165 163.5C114.504 158.976 112.12 146.073 104.718 143.55C103.105 143 102.279 141.173 100.906 140.171C99.6761 139.277 97.662 137.168 98.6482 133.357C100.042 128.023 103.499 119.623 103.499 119.623L106.074 114.486C105.834 114.85 105.561 115.191 105.259 115.506C105.607 115.06 105.956 114.622 106.255 114.253C108.825 115.549 111.628 116.321 114.5 116.522C117.406 117.695 120.309 118.728 121.438 118.69C124.02 118.599 130.606 121.891 130.606 121.891C130.606 121.891 146.451 126.415 149.744 126.781C153.037 127.146 154.64 122.869 154.64 122.869C154.64 122.869 156.351 114.438 153.313 112.204C150.274 109.969 148.507 120.207 148.507 120.207L127.777 112.746L126.498 112.075C127.491 111.026 128.279 109.801 128.822 108.463C129.143 107.666 129.435 106.754 130.199 106.357C130.404 106.256 130.626 106.191 130.854 106.166C131.043 106.154 131.233 106.154 131.422 106.166C135.018 106.385 138.109 109.211 141.712 109.225C141.844 109.225 141.977 109.225 142.109 109.225C142.796 109.223 143.467 109.017 144.036 108.633C144.358 108.372 144.622 108.047 144.813 107.68C145.003 107.312 145.116 106.91 145.144 106.497C145.092 106.609 145.034 106.718 144.97 106.824C145.064 106.312 145.064 105.787 144.97 105.275C144.747 104.054 144.109 102.958 143.538 101.855C143.376 101.597 143.285 101.302 143.273 100.998C143.289 100.84 143.338 100.687 143.415 100.547C143.492 100.408 143.597 100.286 143.723 100.188C143.728 100.22 143.735 100.253 143.744 100.285C144.015 100.03 144.317 99.8091 144.643 99.6274C145.523 99.0506 146.276 98.2992 146.854 97.4199C147.432 96.5405 147.822 95.552 148.002 94.5156C147.915 94.7731 147.81 95.0271 147.699 95.2776C148.235 93.5112 148.105 91.6098 147.333 89.9326C147.133 89.4553 146.814 89.0371 146.406 88.7182C145.106 87.8065 143.36 88.7773 141.775 88.8817C140.381 88.9722 139.029 88.3493 137.771 87.7195C135.624 86.6442 133.488 85.4819 131.7 83.8917C129.669 82.0717 128.16 79.7507 126.327 77.7358C124.494 75.721 122.142 73.9254 119.413 73.7236C114.455 73.3408 109.778 78.2474 105.063 76.6466C102.764 75.8706 101.251 73.7479 99.6517 71.9245C98.0523 70.1011 95.8534 68.3507 93.456 68.744C91.7903 69.0223 90.3476 70.3134 88.661 70.2646C87.7794 70.2368 86.9605 69.8436 86.1242 69.5687C84.0996 68.8901 81.3257 69.2207 80.6044 71.232C80.4627 71.6417 80.4126 72.0774 80.4578 72.5085C80.503 72.9396 80.6422 73.3555 80.8658 73.7271C80.7591 73.8765 80.6636 74.0335 80.58 74.1968C80.4068 74.5156 80.3466 74.8835 80.4093 75.2408C78.9761 76.5254 77.9142 78.1703 77.3342 80.004C76.7542 81.8378 76.6772 83.7934 77.1114 85.6669C77.5456 87.5405 78.475 89.2635 79.8027 90.6564C81.1305 92.0493 82.8081 93.0611 84.6606 93.5864C84.7268 93.8405 84.793 94.0945 84.8557 94.352C85.5318 97.195 85.8837 100.396 84.8836 102.554C84.8209 102.686 84.7547 102.815 84.6815 102.94L84.5944 102.979L84.4689 102.85L83.7093 102.056C83.6675 101.228 83.2005 99.008 79.9528 94.8879C75.6771 89.4628 74.8756 80.4849 74.8756 80.4849C74.8756 80.4849 73.8093 75.8637 74.8756 74.5309C75.9419 73.1981 77.726 58.5237 77.726 58.5237L80.6741 50.2626C80.6741 50.2626 95.0066 35.6821 89.0374 33.9074C84.9847 32.6999 80.1514 38.9218 77.4682 43.035C76.1502 45.0547 75.298 47.3415 74.9731 49.7302L66.8712 71.8654C66.8712 71.8654 66.0697 74.5344 66.8712 79.1556C67.6727 83.7768 69.4534 91.9579 69.4534 91.9579L73.9835 103.424C73.9835 103.424 75.6527 108.376 75.5063 110.526C75.3077 110.655 74.6107 112.033 74.0079 113.286L73.5653 113.982L73.534 114.264C73.2378 114.893 73.0322 115.346 73.0322 115.346C73.0322 115.346 70.5092 122.782 72.6175 127.344C74.7257 131.906 74.8094 134.022 74.8094 134.022L76.381 140.78L77.0361 146.696L82.6882 160.653L87.8944 168.076C87.8944 168.076 87.4065 173.542 86.3367 174.298C85.2669 175.053 85.7583 178.964 85.7583 178.964L85.0892 189.23C85.0892 189.23 82.9984 192.299 82.866 197.275C82.7336 202.251 81.9739 203.678 81.9739 203.678C81.9739 203.678 81.6254 207.854 82.5977 209.767C83.5699 211.681 81.04 213.679 81.04 213.679L83.211 221.122L82.3642 230.546C82.3642 230.546 82.7579 230.653 83.4096 230.817L83.2772 231.492L79.7367 249.344C79.7367 249.344 77.8236 254.236 77.7365 255.388L71.5477 266.548C71.5477 266.548 66.3834 271.66 68.8331 272.147C71.2829 272.634 78.4056 268.236 78.4056 268.236C78.4056 268.236 84.2808 261.923 86.5946 261.349C88.9084 260.775 91.4732 259.122 90.7344 256.724C89.9957 254.327 88.2951 250.68 89.9329 246.81C90.9783 244.374 93.2016 237.763 94.7279 233.148C94.8115 232.894 94.8916 232.651 94.9718 232.414C95.3755 232.378 95.7747 232.302 96.1636 232.188C99.9026 231.033 101.861 231.84 101.861 231.84L108.538 204.861L110.005 191.324L119.354 199.112C121.204 200.653 123.501 201.559 125.905 201.698C129.589 201.913 135.335 202.446 139.496 203.73L141.238 196.485C141.238 196.485 146.221 196.666 147.291 194.975C147.727 194.279 148.155 193.687 148.507 193.235L149.316 193.11L171.37 189.703C175.465 189.703 181.075 186.943 181.075 186.943L184.504 186.279C184.504 186.279 189.62 185.256 190.08 184.41C190.54 183.564 185.274 180.756 181.709 181.64Z" fill="url(#paint0_linear_105_2439)"/>
<path d="M81.6324 72.9755C82.3293 71.0129 85.0544 70.6823 87.0372 71.347C87.8526 71.6184 88.6575 72.0046 89.5183 72.0429C91.17 72.0916 92.5813 70.825 94.2121 70.557C96.5573 70.1673 98.7074 71.8794 100.272 73.6645C101.837 75.4497 103.321 77.5271 105.572 78.2892C110.182 79.8412 114.761 75.053 119.612 75.4253C122.274 75.6306 124.574 77.381 126.369 79.354C128.164 81.3271 129.641 83.596 131.627 85.3776C133.37 86.9435 135.46 88.0814 137.569 89.1358C138.799 89.7518 140.113 90.3607 141.485 90.2703C143.04 90.1693 144.747 89.2263 146.016 90.1102C146.415 90.4228 146.727 90.8326 146.922 91.3003C148.483 94.5435 147.225 98.862 144.169 100.769C143.636 101.099 142.987 101.465 142.956 102.102C142.966 102.399 143.055 102.689 143.214 102.94C143.771 104.019 144.399 105.094 144.608 106.288C144.817 107.481 144.535 108.856 143.562 109.58C142.928 110.001 142.174 110.208 141.412 110.168C137.886 110.151 134.861 107.384 131.342 107.172C130.891 107.12 130.435 107.19 130.021 107.374C129.275 107.76 128.975 108.654 128.672 109.434C127.041 113.502 122.992 116.331 118.671 117.107C114.35 117.883 109.838 116.79 105.97 114.716C105.687 114.581 105.427 114.403 105.199 114.187C104.876 113.796 104.649 113.335 104.534 112.84C103.349 109.1 101.746 105.185 98.4635 103.024C96.3343 101.632 93.4455 100.849 92.4802 98.5001C91.8739 97.0142 92.2537 95.3265 92.1004 93.7257C91.9495 92.3533 91.4139 91.0513 90.5552 89.9691C89.6966 88.887 88.5497 88.0687 87.2462 87.6082C86.6747 87.4168 86.0475 87.2811 85.6293 86.8461C85.2898 86.4191 85.073 85.9078 85.0021 85.3672C84.4829 83.0113 84.1379 80.5233 83.4131 78.2231C82.859 76.4205 80.8901 75.039 81.6324 72.9755Z" fill="#663D5B"/>
<g opacity="0.1">
<path d="M143.97 108.498C143.333 108.913 142.58 109.115 141.82 109.072C138.297 109.072 135.272 106.288 131.753 106.079C131.303 106.026 130.847 106.095 130.432 106.277C129.683 106.664 129.387 107.558 129.084 108.337C127.453 112.409 123.4 115.238 119.079 116.014C114.758 116.79 110.245 115.697 106.381 113.623C106.098 113.488 105.838 113.309 105.611 113.094C105.288 112.702 105.061 112.242 104.945 111.748C103.76 108.003 102.157 104.092 98.8747 101.928C96.7421 100.518 93.8533 99.7562 92.8915 97.4039C92.2817 95.9145 92.6615 94.2268 92.5117 92.6295C92.3612 91.2564 91.8255 89.9537 90.9661 88.8714C90.1066 87.7891 88.9585 86.9712 87.654 86.512C87.0825 86.3206 86.4553 86.1814 86.0371 85.7499C85.6972 85.3221 85.4814 84.8094 85.4134 84.2675C84.8906 81.9151 84.5491 79.4236 83.8243 77.1269C83.3365 75.5888 81.7997 74.343 81.8764 72.7006C81.8313 72.7873 81.7917 72.8768 81.7579 72.9685C81.0122 75.032 82.9845 76.4135 83.5456 78.1882C84.2704 80.4849 84.6119 82.9765 85.1346 85.3289C85.2027 85.8707 85.4184 86.3835 85.7583 86.8113C86.1765 87.2428 86.8037 87.382 87.3752 87.5733C88.6803 88.0328 89.8287 88.8512 90.6881 89.9342C91.5476 91.0172 92.0831 92.3207 92.2329 93.6944C92.3827 95.2916 92.0029 96.9793 92.6127 98.4687C93.5745 100.831 96.4633 101.601 98.596 102.992C101.872 105.16 103.475 109.068 104.666 112.813C104.782 113.306 105.01 113.767 105.332 114.159C105.56 114.374 105.819 114.553 106.102 114.688C109.967 116.776 114.465 117.851 118.8 117.079C123.135 116.306 127.163 113.474 128.805 109.402C129.118 108.623 129.408 107.729 130.153 107.342C130.568 107.16 131.024 107.091 131.474 107.144C134.994 107.356 138.018 110.123 141.541 110.137C142.302 110.176 143.056 109.971 143.691 109.552C144.006 109.297 144.265 108.98 144.452 108.621C144.639 108.262 144.75 107.868 144.779 107.464C144.603 107.872 144.324 108.228 143.97 108.498Z" fill="black"/>
<path d="M144.576 99.6762C144.043 100.024 143.392 100.372 143.36 101.009C143.357 101.137 143.377 101.264 143.42 101.385C143.684 101.135 143.979 100.918 144.298 100.741C145.16 100.177 145.896 99.4423 146.462 98.582C147.027 97.7218 147.409 96.7545 147.584 95.7405C147.069 97.3609 146.005 98.7521 144.576 99.6762Z" fill="black"/>
</g>
<path d="M90.7519 244.785C89.1385 248.571 90.7972 252.134 91.536 254.487C92.2747 256.839 89.7518 258.443 87.4867 259.011C85.2217 259.578 79.472 265.751 79.472 265.751C79.472 265.751 72.5026 270.056 70.1051 269.579C67.7076 269.102 72.7604 264.098 72.7604 264.098L78.8168 253.178C78.9039 252.051 80.7752 247.263 80.7752 247.263L84.239 229.794L84.699 227.473L96.979 226.732C96.979 226.732 96.3344 228.722 95.4458 231.412C93.9509 235.936 91.7625 242.422 90.7519 244.785Z" fill="#CC818C"/>
<path d="M188.759 183.725C188.323 184.553 183.316 185.551 183.316 185.551L179.96 186.202C179.96 186.202 174.472 188.902 170.464 188.902L148.88 192.24L145.984 192.689V180.46C145.984 180.46 147.441 180.614 149.504 180.808C154.114 181.212 161.742 181.748 162.798 180.996C164.324 179.911 165.324 175.735 167.893 176.215C170.461 176.695 173.513 180.217 173.513 180.217C173.513 180.217 177.085 181.912 180.57 181.042C184.055 180.172 189.194 182.896 188.759 183.725Z" fill="#CC818C"/>
<path opacity="0.1" d="M149.643 191.293C149.643 191.293 149.333 191.641 148.88 192.236L145.984 192.685V180.46C145.984 180.46 147.441 180.614 149.504 180.808C152.968 183.54 149.643 191.293 149.643 191.293Z" fill="black"/>
<path d="M107.959 188.467L119.553 198.127C121.364 199.635 123.611 200.522 125.965 200.657C129.568 200.87 135.192 201.388 139.276 202.648L140.977 195.556C140.977 195.556 145.855 195.73 146.901 194.077C147.515 193.101 148.198 192.171 148.946 191.293C148.946 191.293 152.476 183.074 148.469 180.551C148.469 180.551 144.026 179.201 143.109 177.983C142.193 176.765 136.011 174.548 134.095 174.677C132.178 174.806 126.515 175.112 126.515 175.112C126.515 175.112 124.292 172.589 123.292 172.85C122.292 173.111 118.804 172.85 118.804 172.85C118.804 172.85 117.845 170.39 116.887 166.865C115.929 163.34 110.224 162.08 110.224 162.08L107.959 188.467Z" fill="#565987"/>
<path opacity="0.1" d="M107.959 188.467L119.553 198.127C121.364 199.635 123.611 200.522 125.965 200.657C129.568 200.87 135.192 201.388 139.276 202.648L140.977 195.556C140.977 195.556 145.855 195.73 146.901 194.077C147.515 193.101 148.198 192.171 148.946 191.293C148.946 191.293 152.476 183.074 148.469 180.551C148.469 180.551 144.026 179.201 143.109 177.983C142.193 176.765 136.011 174.548 134.095 174.677C132.178 174.806 126.515 175.112 126.515 175.112C126.515 175.112 124.292 172.589 123.292 172.85C122.292 173.111 118.804 172.85 118.804 172.85C118.804 172.85 117.845 170.39 116.887 166.865C115.929 163.34 110.224 162.08 110.224 162.08L107.959 188.467Z" fill="black"/>
<path d="M102.774 101.861L101.492 102.102H101.412L101.223 102.136L99.028 102.544L98.352 103.344L98.3241 103.372L96.1532 105.94L94.3237 107.732L94.3063 107.753L92.7591 109.256L90.1421 111.856L89.703 112.938L88.7482 115.335L88.5008 115.944L85.8873 118.728L84.2181 122.295L80.3152 124.557L76.1162 122.382L74.1996 119.598L74.6352 115.61L74.7223 114.813L76.0012 112.764L77.1616 110.899L79.4266 107.68L83.7825 104.722L84.5631 104.517L85.4377 104.287C85.5046 104.192 85.5662 104.093 85.6224 103.991C85.6962 103.869 85.7625 103.742 85.821 103.612C86.8002 101.503 86.4552 98.3677 85.7932 95.5873C85.2857 93.5074 84.6134 91.4711 83.7825 89.4976L95.282 87.8447C95.282 87.8447 95.1705 90.0718 95.1705 93.5447C95.1705 94.4146 95.1705 95.3577 95.1949 96.3668C95.2506 99.4987 98.1638 100.856 100.363 101.433C100.929 101.584 101.504 101.7 102.084 101.781C102.509 101.848 102.774 101.861 102.774 101.861Z" fill="#CC818C"/>
<path d="M84.6536 103.504C84.6536 103.504 85.1763 101.416 80.9947 96.1093C76.8131 90.8026 76.029 82.016 76.029 82.016C76.029 82.016 74.9836 77.4922 76.029 76.1873C77.0744 74.8824 78.8168 60.5281 78.8168 60.5281L81.6916 52.4375C81.6916 52.4375 95.7175 38.1702 89.8807 36.4303C85.9151 35.2471 81.1689 41.3403 78.5589 45.363C77.2697 47.3397 76.4365 49.5778 76.1196 51.9155L68.1884 73.5774C68.1884 73.5774 67.4044 76.1873 68.1884 80.7111C68.9725 85.2349 70.7148 93.2385 70.7148 93.2385L75.1578 104.471C75.1578 104.471 77.4961 111.466 76.2834 112.318L78.991 108.32L84.6536 103.504Z" fill="#CC818C"/>
<path d="M154.086 123.523C154.086 123.523 152.518 127.699 149.295 127.351C146.071 127.003 130.564 122.567 130.564 122.567C130.564 122.567 124.118 119.348 121.591 119.435C119.065 119.522 107.478 114.128 107.478 114.128C107.478 114.128 106.663 115.2 105.753 116.327C104.764 117.563 103.663 118.867 103.384 118.913C102.861 119 94.7592 120.131 94.7592 120.131L89.2708 117.608L88.7481 115.335L88.5007 114.292L89.7169 112.938L91.3164 111.16L94.3167 107.742L94.3341 107.722L98.338 103.375L98.3659 103.347L100.931 102.303L101.425 102.102H101.506C101.812 102.049 102.99 101.942 104.569 102.832C105.668 103.454 106.889 103.832 108.147 103.939C110.653 104.117 113.025 105.132 114.883 106.82L127.777 113.596L148.075 120.903C148.075 120.903 149.817 110.899 152.779 113.074C155.741 115.248 154.086 123.523 154.086 123.523Z" fill="#CC818C"/>
<path opacity="0.1" d="M105.753 116.327C104.764 117.562 103.663 118.867 103.384 118.913C102.861 119 94.7593 120.131 94.7593 120.131L89.2709 117.608L88.7482 115.335L88.5008 115.944L85.8872 118.728L84.2181 122.295L80.3152 124.557L76.1162 122.382L74.1996 119.598L74.6352 115.61C74.8547 115.137 75.4541 113.85 76.0012 112.764C76.2597 112.166 76.5846 111.598 76.9699 111.073C77.3184 110.843 77.6843 108.376 77.6843 108.376C79.2663 103.821 84.5665 103.121 84.5665 103.121L85.4133 103.915L85.7827 104.297C85.6329 104.273 85.8106 103.949 85.6189 104.002C85.3123 104.089 85.1764 104.551 84.7826 104.805C82.6395 106.197 79.2907 109.444 77.9665 110.986C77.6459 111.358 77.3149 111.723 76.9769 112.078C75.0638 114.1 75.4157 116.78 75.4157 116.78C74.9383 118.867 79.1618 120.433 79.1618 120.433C80.3396 118.478 88.3091 113.084 88.3091 113.084L93.6755 107.081C95.3203 104.221 98.5541 102.331 100.359 101.447C101.157 101.058 101.68 100.863 101.68 100.863L103.687 101.719C103.157 101.577 102.596 101.601 102.081 101.788C101.784 101.88 101.496 101.996 101.22 102.136C101.115 102.189 101.011 102.244 100.913 102.303C100.364 102.622 99.8484 102.994 99.373 103.414L94.8638 108.331C91.4175 112.085 94.0135 118.158 99.1117 118.245H99.157C102.272 118.961 104.506 117.521 105.753 116.327Z" fill="black"/>
<path opacity="0.1" d="M96.9791 226.742C96.9791 226.742 96.3344 228.733 95.4458 231.423C92.0378 231.677 86.41 230.361 84.239 229.804L84.699 227.483L96.9791 226.742Z" fill="black"/>
<path d="M85.7861 104.297L84.671 103.156C84.671 103.156 80.6462 103.706 78.1477 108C78.1477 108 76.9803 111.219 76.6214 111.448C76.2625 111.678 74.1995 116.178 74.1995 116.178C74.1995 116.178 71.7324 123.454 73.7918 127.922C75.8513 132.39 75.9419 134.447 75.9419 134.447L77.4821 141.058L78.1198 146.856L83.6535 160.514L88.7481 167.763C88.7481 167.763 88.2707 173.111 87.2253 173.852C86.1799 174.593 86.6573 178.418 86.6573 178.418L86.0057 188.467C86.0057 188.467 83.9567 191.467 83.8277 196.339C83.6988 201.211 82.9566 202.603 82.9566 202.603C82.9566 202.603 82.6081 206.691 83.5664 208.563C84.5247 210.436 82.0401 212.391 82.0401 212.391L84.1762 219.654L83.3468 228.875C83.3468 228.875 93.1911 231.617 96.85 230.486C100.509 229.355 102.426 230.138 102.426 230.138L108.959 203.723L111.224 182.976C111.224 182.976 111.357 168.274 113.315 163.792C114.995 159.964 112.793 146.327 105.227 143.752C103.649 143.216 102.847 141.427 101.499 140.446C100.293 139.572 98.3241 137.509 99.2893 133.779C100.641 128.559 104.039 120.339 104.039 120.339L106.555 115.335C106.555 115.335 103.819 119.755 98.8119 118.624H98.7666C93.6685 118.533 91.0724 112.461 94.5188 108.71L99.028 103.789C99.028 103.789 101.513 101.503 103.342 102.081L101.338 101.225C101.338 101.225 95.6966 103.313 93.3235 107.443L87.9571 113.446C87.9571 113.446 79.9946 118.815 78.8167 120.785C78.8167 120.785 74.5933 119.219 75.0707 117.131C75.0707 117.131 74.7222 114.448 76.6318 112.426C76.9803 112.078 77.3009 111.709 77.6215 111.337C79.3395 109.333 84.0891 104.016 85.7861 104.297Z" fill="#565987"/>
<path opacity="0.1" d="M86.4413 140.14C86.4413 140.14 85.1763 149.319 86.1346 151.188L86.4413 140.14Z" fill="black"/>
<path opacity="0.1" d="M87.2672 143.706L88.6193 148.971C88.6193 148.971 89.0967 145.753 87.2672 143.706Z" fill="black"/>
<path opacity="0.1" d="M79.2524 142.478C79.2524 142.478 81.9531 155.875 84.9151 159.922L79.2524 142.478Z" fill="black"/>
<path opacity="0.1" d="M98.2893 158.628C98.2893 158.628 93.672 162.978 91.8844 162.661C91.8844 162.661 98.9862 162.967 101.206 159.226C101.206 159.237 99.7703 158.193 98.2893 158.628Z" fill="black"/>
<path opacity="0.1" d="M104.691 158.28C104.691 158.28 98.7666 162.585 97.5923 162.978C97.5923 162.978 103.994 161.151 104.691 158.28Z" fill="black"/>
<path opacity="0.1" d="M84.6537 126.307C84.6537 126.307 81.6917 130.093 80.2107 129.658C80.2107 129.658 83.8278 129.787 84.6537 126.307Z" fill="black"/>
<path opacity="0.1" d="M88.0094 131.179C88.0094 131.179 94.4561 122.438 97.5052 122.786C97.5052 122.786 90.1873 129.136 88.0094 131.179Z" fill="black"/>
<path opacity="0.1" d="M96.9372 127.999C96.9372 127.999 92.8427 130.048 93.2783 130.647C93.7139 131.245 96.9372 127.999 96.9372 127.999Z" fill="black"/>
<path opacity="0.1" d="M99.8992 195.121C99.8992 195.121 86.2218 203.083 84.9603 203.473C84.9603 203.473 87.3125 205.258 89.5322 204.388C91.752 203.518 99.8992 195.121 99.8992 195.121Z" fill="black"/>
<path opacity="0.1" d="M88.4451 211.695C88.4451 211.695 82.9567 211.128 83.1727 212.913C83.3888 214.698 88.4451 211.695 88.4451 211.695Z" fill="black"/>
<path opacity="0.1" d="M95.282 87.8447C95.282 87.8447 95.1704 90.0718 95.1704 93.5447C93.8801 94.6006 92.3575 95.336 90.7274 95.6905C89.0973 96.045 87.4063 96.0084 85.7931 95.5839C85.2857 93.5039 84.6133 91.4676 83.7825 89.4942L95.282 87.8447Z" fill="black"/>
<path d="M88.4869 95.2533C94.3086 95.2533 99.0281 90.5404 99.0281 84.7268C99.0281 78.9132 94.3086 74.2003 88.4869 74.2003C82.6651 74.2003 77.9457 78.9132 77.9457 84.7268C77.9457 90.5404 82.6651 95.2533 88.4869 95.2533Z" fill="#CC818C"/>
<path opacity="0.1" d="M91.2502 91.1506C91.5464 95.4552 92.4524 100.379 96.195 102.544C98.8991 104.106 102.307 103.695 105.3 102.805C108.294 101.914 111.224 100.584 114.34 100.435C116.734 100.32 119.1 100.908 121.487 101.058C123.874 101.207 126.487 100.835 128.191 99.1577C130.631 96.7706 130.185 92.4312 127.874 89.9223C125.564 87.4133 121.95 86.5016 118.528 86.5956C114.347 86.7104 109.677 87.9875 106.37 85.4542C104.151 83.7491 103.311 80.7912 101.443 78.7068C98.3241 75.227 84.5317 70.2021 81.6115 75.8742C80.242 78.5293 86.4657 80.4258 87.9084 82.3467C90.1874 85.3776 90.9784 87.1767 91.2502 91.1506Z" fill="black"/>
<path d="M91.5743 90.7783C91.8739 95.0863 92.7765 100.01 96.519 102.171C99.2232 103.734 102.631 103.323 105.625 102.436C108.618 101.548 111.549 100.216 114.667 100.066C117.058 99.9511 119.424 100.536 121.814 100.689C124.205 100.842 126.811 100.466 128.516 98.7889C130.955 96.3982 130.509 92.0623 128.198 89.5534C125.888 87.0444 122.274 86.1327 118.856 86.2267C114.674 86.338 110.001 87.6186 106.694 85.0818C104.475 83.3767 103.635 80.4223 101.767 78.3344C98.6482 74.8546 84.8558 69.8332 81.9356 75.5053C80.5661 78.1569 86.7898 80.0535 88.2359 81.9778C90.5114 85.0053 91.3025 86.8008 91.5743 90.7783Z" fill="#663D5B"/>
<path opacity="0.1" d="M78.897 120.43C79.0587 119.056 79.5119 117.733 80.2264 116.549C80.9409 115.364 81.9002 114.346 83.0403 113.561" fill="black"/>
<path opacity="0.1" d="M118.42 174.938C118.388 175.279 118.305 175.613 118.173 175.93C117.716 177.296 117.167 178.629 116.528 179.921C117.459 179.841 118.225 179.11 118.619 178.268C118.963 177.402 119.153 176.482 119.18 175.55C119.214 175.259 119.222 174.966 119.204 174.673C119.18 174.402 119.006 173.365 118.556 173.549C118.194 173.703 118.427 174.663 118.42 174.938Z" fill="black"/>
<path opacity="0.1" d="M129.143 97.6997C127.435 99.377 124.829 99.7528 122.438 99.5997C120.048 99.4466 117.671 98.862 115.291 98.9803C112.155 99.1299 109.249 100.459 106.252 101.35C103.255 102.241 99.8504 102.651 97.1428 101.089C93.4037 98.9246 92.4977 94.0006 92.2015 89.6961C91.9297 85.7221 91.1352 83.9231 88.8597 80.8921C87.4832 79.0583 81.7683 77.2488 82.4235 74.785C82.2341 75.0072 82.0704 75.25 81.9356 75.5088C80.5661 78.1605 86.7898 80.057 88.2359 81.9813C90.5114 85.0088 91.3025 86.8113 91.5743 90.7818C91.8739 95.0898 92.7765 100.014 96.519 102.175C99.2232 103.737 102.631 103.327 105.625 102.439C108.618 101.552 111.549 100.219 114.667 100.069C117.058 99.9546 119.424 100.539 121.814 100.692C124.205 100.845 126.811 100.47 128.516 98.7924C128.999 98.3128 129.384 97.7429 129.648 97.1151C129.495 97.3227 129.326 97.5181 129.143 97.6997Z" fill="black"/>
<path d="M78.1408 129.342L76.8619 132.126L80.9286 131.315L78.1408 129.342Z" fill="#CC818C"/>
<path opacity="0.1" d="M78.1408 129.342L77.0884 132.126H76.8619L78.1408 129.342Z" fill="black"/>
<path opacity="0.1" d="M178.772 255.698C186.662 255.698 193.059 254.821 193.059 253.739C193.059 252.657 186.662 251.78 178.772 251.78C170.881 251.78 164.484 252.657 164.484 253.739C164.484 254.821 170.881 255.698 178.772 255.698Z" fill="#1E1E1E"/>
<path opacity="0.1" d="M233.499 261.238C241.39 261.238 247.786 260.36 247.786 259.278C247.786 258.196 241.39 257.319 233.499 257.319C225.608 257.319 219.212 258.196 219.212 259.278C219.212 260.36 225.608 261.238 233.499 261.238Z" fill="#1E1E1E"/>
<path opacity="0.1" d="M297.962 253.739C305.853 253.739 312.249 252.861 312.249 251.779C312.249 250.697 305.853 249.82 297.962 249.82C290.072 249.82 283.675 250.697 283.675 251.779C283.675 252.861 290.072 253.739 297.962 253.739Z" fill="#1E1E1E"/>
<path opacity="0.1" d="M211.594 276.448C217.202 276.448 221.748 275.825 221.748 275.056C221.748 274.287 217.202 273.664 211.594 273.664C205.986 273.664 201.44 274.287 201.44 275.056C201.44 275.825 205.986 276.448 211.594 276.448Z" fill="#1E1E1E"/>
<path opacity="0.1" d="M268.395 275.056C274.003 275.056 278.549 274.433 278.549 273.664C278.549 272.895 274.003 272.272 268.395 272.272C262.787 272.272 258.24 272.895 258.24 273.664C258.24 274.433 262.787 275.056 268.395 275.056Z" fill="#1E1E1E"/>
<path d="M233.809 258.84C233.809 258.84 213.772 193.245 236.945 166.973C254.278 147.319 273.956 149.671 282.769 152.1C285.049 152.706 287.17 153.801 288.985 155.307C290.8 156.813 292.265 158.696 293.279 160.824C296.359 167.463 295.805 178.223 274.057 190.809C237.642 211.862 235.377 240.745 235.377 240.745L233.809 258.84Z" fill="#1E1E1E"/>
<path d="M279.633 161.405C279.633 161.405 220.567 179.848 233.809 258.84" stroke="#565987" stroke-miterlimit="10"/>
<path d="M245.134 168.017C245.134 168.017 253.264 173.49 250.682 181.713" stroke="#565987" stroke-miterlimit="10"/>
<path d="M273.709 172.888C273.709 172.888 268.736 167.836 262.683 170.623" stroke="#565987" stroke-miterlimit="10"/>
<path d="M250.361 198.291C250.361 198.291 241.629 193.865 239.371 199.408" stroke="#565987" stroke-miterlimit="10"/>
<path d="M228.756 207.513C228.756 207.513 235.311 206.991 235.429 210.122" stroke="#565987" stroke-miterlimit="10"/>
<path d="M233.015 259.362C233.015 259.362 256.48 211.688 262.927 212.732C265.99 213.226 267.401 216.237 268.039 219.257C268.827 223.167 268.373 227.225 266.743 230.866C263.415 238.49 254.47 252.977 233.015 259.362Z" fill="#1E1E1E"/>
<path d="M262.735 221.78C262.735 221.78 238.106 257.448 233.346 259.014" stroke="#565987" stroke-miterlimit="10"/>
<path d="M265 227.348H259.251" stroke="#565987" stroke-miterlimit="10"/>
<path d="M258.115 240.397L249.103 240.783" stroke="#565987" stroke-miterlimit="10"/>
<path d="M252.63 229.958L253.609 234.645" stroke="#565987" stroke-miterlimit="10"/>
<path d="M243.047 244.225L243.221 248.484" stroke="#565987" stroke-miterlimit="10"/>
<path d="M233.711 259.362C233.711 259.362 210.245 211.688 203.799 212.732C200.736 213.226 199.324 216.237 198.687 219.257C197.888 223.163 198.329 227.221 199.948 230.866C203.276 238.49 212.221 252.977 233.711 259.362Z" fill="#1E1E1E"/>
<path d="M203.956 221.78C203.956 221.78 228.586 257.448 233.346 259.014" stroke="#565987" stroke-miterlimit="10"/>
<path d="M201.687 227.348H207.437" stroke="#565987" stroke-miterlimit="10"/>
<path d="M208.576 240.397L217.588 240.783" stroke="#565987" stroke-miterlimit="10"/>
<path d="M214.058 229.958L213.082 234.645" stroke="#565987" stroke-miterlimit="10"/>
<path d="M223.641 244.225L223.466 248.484" stroke="#565987" stroke-miterlimit="10"/>
<path d="M273.988 270.494C274.628 269.975 275.095 269.273 275.326 268.483C275.496 267.682 275.155 266.725 274.392 266.433C273.535 266.106 272.618 266.698 271.925 267.296C271.231 267.895 270.433 268.58 269.524 268.451C269.991 268.028 270.34 267.491 270.537 266.893C270.735 266.294 270.773 265.655 270.649 265.038C270.612 264.781 270.503 264.54 270.336 264.342C269.862 263.834 268.997 264.053 268.426 264.453C266.614 265.727 266.109 268.183 266.102 270.397C265.917 269.596 266.07 268.765 266.067 267.961C266.063 267.157 265.837 266.221 265.147 265.796C264.721 265.561 264.24 265.441 263.753 265.448C262.938 265.42 262.032 265.5 261.474 266.096C260.777 266.833 260.962 268.076 261.565 268.879C262.167 269.683 263.08 270.202 263.92 270.765C264.597 271.165 265.174 271.714 265.607 272.37C265.658 272.46 265.7 272.556 265.732 272.655H270.837C271.98 272.08 273.04 271.353 273.988 270.494Z" fill="#1E1E1E"/>
<path d="M184.577 251.296C185.217 250.775 185.683 250.073 185.912 249.281C186.086 248.481 185.745 247.541 184.978 247.231C184.121 246.904 183.208 247.496 182.511 248.098C181.814 248.7 181.019 249.378 180.113 249.253C180.58 248.828 180.928 248.288 181.124 247.688C181.321 247.088 181.358 246.448 181.232 245.829C181.193 245.573 181.084 245.332 180.918 245.133C180.441 244.625 179.58 244.841 179.009 245.241C177.197 246.515 176.691 248.971 176.681 251.184C176.5 250.388 176.653 249.556 176.65 248.749C176.646 247.941 176.42 247.009 175.726 246.581C175.298 246.351 174.818 246.238 174.332 246.254C173.52 246.222 172.611 246.302 172.057 246.897C171.36 247.639 171.544 248.877 172.144 249.681C172.743 250.485 173.66 251.004 174.503 251.567C175.178 251.969 175.753 252.517 176.186 253.171C176.238 253.263 176.28 253.36 176.312 253.46H181.42C182.565 252.883 183.627 252.155 184.577 251.296Z" fill="#1E1E1E"/>
<path d="M214.368 270.494C215.009 269.975 215.475 269.273 215.706 268.483C215.877 267.682 215.535 266.725 214.772 266.433C213.915 266.106 212.998 266.698 212.305 267.296C211.612 267.895 210.814 268.58 209.904 268.451C210.372 268.028 210.722 267.492 210.92 266.893C211.117 266.295 211.157 265.656 211.033 265.038C210.996 264.781 210.887 264.54 210.72 264.342C210.246 263.834 209.381 264.053 208.81 264.453C206.998 265.727 206.493 268.183 206.486 270.397C206.301 269.596 206.454 268.765 206.451 267.961C206.447 267.157 206.221 266.221 205.531 265.796C205.105 265.561 204.624 265.441 204.137 265.448C203.321 265.42 202.415 265.5 201.858 266.096C201.161 266.833 201.346 268.076 201.949 268.879C202.551 269.683 203.464 270.202 204.304 270.765C204.981 271.165 205.558 271.714 205.991 272.37C206.042 272.46 206.084 272.556 206.116 272.655H211.221C212.363 272.079 213.421 271.353 214.368 270.494Z" fill="#1E1E1E"/>
<path d="M298.875 231.683C298.875 231.683 300.792 234.182 297.994 237.947C295.195 241.712 292.888 244.907 293.812 247.259C293.812 247.259 298.035 240.251 301.478 240.153C304.921 240.056 302.67 235.898 298.875 231.683Z" fill="#1E1E1E"/>
<path opacity="0.1" d="M298.875 231.683C299.043 231.924 299.174 232.188 299.266 232.466C302.621 236.399 304.405 240.07 301.182 240.164C298.182 240.247 294.582 245.61 293.718 246.963C293.746 247.067 293.78 247.169 293.819 247.27C293.819 247.27 298.042 240.261 301.485 240.164C304.928 240.066 302.67 235.898 298.875 231.683Z" fill="black"/>
<path d="M302.447 234.868C302.447 235.748 302.349 236.461 302.228 236.461C302.106 236.461 302.011 235.738 302.011 234.868C302.011 233.998 302.133 234.405 302.255 234.405C302.377 234.405 302.447 233.998 302.447 234.868Z" fill="#FFD037"/>
<path d="M303.67 235.918C302.897 236.339 302.221 236.593 302.165 236.489C302.109 236.385 302.684 235.953 303.458 235.532C304.231 235.111 303.928 235.417 303.984 235.532C304.04 235.647 304.451 235.497 303.67 235.918Z" fill="#FFD037"/>
<path d="M288.77 231.683C288.77 231.683 286.853 234.182 289.651 237.947C292.449 241.712 294.756 244.907 293.833 247.259C293.833 247.259 289.613 240.251 286.167 240.153C282.72 240.056 284.999 235.898 288.77 231.683Z" fill="#1E1E1E"/>
<path opacity="0.1" d="M288.77 231.683C288.602 231.924 288.469 232.188 288.376 232.466C285.024 236.399 283.239 240.07 286.459 240.164C289.463 240.247 293.08 245.61 293.927 246.963C293.899 247.068 293.864 247.17 293.822 247.27C293.822 247.27 289.602 240.261 286.156 240.164C282.71 240.066 284.999 235.898 288.77 231.683Z" fill="black"/>
<path d="M285.219 234.868C285.219 235.748 285.32 236.461 285.442 236.461C285.564 236.461 285.661 235.748 285.661 234.868C285.661 233.987 285.539 234.405 285.417 234.405C285.295 234.405 285.219 233.998 285.219 234.868Z" fill="#FFD037"/>
<path d="M283.999 235.918C284.773 236.339 285.445 236.593 285.504 236.489C285.564 236.385 284.985 235.953 284.212 235.532C283.438 235.111 283.741 235.417 283.682 235.532C283.623 235.647 283.225 235.497 283.999 235.918Z" fill="#FFD037"/>
<path d="M285.828 246.943C285.828 246.943 291.181 246.779 292.798 245.631C294.415 244.482 301.032 243.115 301.433 244.956C301.834 246.796 309.476 254.104 303.433 254.153C297.391 254.201 289.393 253.213 287.783 252.232C286.173 251.251 285.828 246.943 285.828 246.943Z" fill="#A8A8A8"/>
<path opacity="0.2" d="M303.538 253.512C297.495 253.561 289.494 252.573 287.884 251.592C286.661 250.847 286.17 248.171 286.01 246.936H285.828C285.828 246.936 286.177 251.247 287.78 252.225C289.383 253.203 297.387 254.194 303.43 254.146C305.172 254.146 305.775 253.512 305.744 252.594C305.496 253.154 304.834 253.502 303.538 253.512Z" fill="black"/>
</g>
<defs>
<linearGradient id="paint0_linear_105_2439" x1="128.313" y1="272.175" x2="128.313" y2="33.7438" gradientUnits="userSpaceOnUse">
<stop stop-color="#808080" stop-opacity="0.25"/>
<stop offset="0.54" stop-color="#808080" stop-opacity="0.12"/>
<stop offset="1" stop-color="#808080" stop-opacity="0.1"/>
</linearGradient>
<clipPath id="clip0_105_2439">
<rect width="358" height="278" fill="white"/>
</clipPath>
</defs>
</svg>
